<?xml version="1.0" encoding="UTF-8" standalone="no"?>
<!DOCTYPE svg PUBLIC "-//W3C//DTD SVG 1.1//EN"
 "http://www.w3.org/Graphics/SVG/1.1/DTD/svg11.dtd">
<!-- Generated by graphviz version 2.38.0 (20140413.2041)
 -->
<!-- Title: %3 Pages: 1 -->
<svg width="1268pt" height="479pt"
 viewBox="0.00 0.00 1267.94 479.00" xmlns="http://www.w3.org/2000/svg" xmlns:xlink="http://www.w3.org/1999/xlink">
<g id="graph0" class="graph" transform="scale(1 1) rotate(0) translate(4 475)">
<title>%3</title>
<polygon fill="white" stroke="none" points="-4,4 -4,-475 1263.94,-475 1263.94,4 -4,4"/>
<!-- Edit.Delete -->
<g id="node1" class="node"><title>Edit.Delete</title>
<ellipse fill="none" stroke="black" cx="396" cy="-453" rx="50.0912" ry="18"/>
<text text-anchor="middle" x="396" y="-449.3" font-family="Times New Roman,serif" font-size="14.00">Edit.Delete</text>
</g>
<!-- Edit.Delete&#45;&gt;Edit.Delete -->
<g id="edge1" class="edge"><title>Edit.Delete&#45;&gt;Edit.Delete</title>
<path fill="none" stroke="black" d="M441.151,-460.844C454.078,-460.537 464.046,-457.922 464.046,-453 464.046,-449.462 458.896,-447.117 451.2,-445.963"/>
<polygon fill="black" stroke="black" points="451.399,-442.468 441.151,-445.156 450.839,-449.445 451.399,-442.468"/>
<text text-anchor="middle" x="473.046" y="-449.3" font-family="Times New Roman,serif" font-size="14.00"> 90</text>
</g>
<!-- Edit.BreakLine -->
<g id="node7" class="node"><title>Edit.BreakLine</title>
<ellipse fill="none" stroke="black" cx="437" cy="-366" rx="64.189" ry="18"/>
<text text-anchor="middle" x="437" y="-362.3" font-family="Times New Roman,serif" font-size="14.00">Edit.BreakLine</text>
</g>
<!-- Edit.Delete&#45;&gt;Edit.BreakLine -->
<g id="edge35" class="edge"><title>Edit.Delete&#45;&gt;Edit.BreakLine</title>
<path fill="none" stroke="black" d="M390.966,-434.986C388.939,-424.917 388.089,-412.182 393,-402 395.274,-397.285 398.526,-393.01 402.246,-389.197"/>
<polygon fill="black" stroke="black" points="404.698,-391.701 409.844,-382.44 400.046,-386.47 404.698,-391.701"/>
<text text-anchor="middle" x="402" y="-405.8" font-family="Times New Roman,serif" font-size="14.00"> 63</text>
</g>
<!-- File.SaveSelectedItems -->
<g id="node10" class="node"><title>File.SaveSelectedItems</title>
<ellipse fill="none" stroke="black" cx="319" cy="-18" rx="94.7833" ry="18"/>
<text text-anchor="middle" x="319" y="-14.3" font-family="Times New Roman,serif" font-size="14.00">File.SaveSelectedItems</text>
</g>
<!-- Edit.Delete&#45;&gt;File.SaveSelectedItems -->
<g id="edge7" class="edge"><title>Edit.Delete&#45;&gt;File.SaveSelectedItems</title>
<path fill="none" stroke="black" d="M345.846,-451.64C239.288,-449.518 0,-436.964 0,-367 0,-367 0,-367 0,-104 0,-57.5486 127.892,-35.8434 221.719,-26.1701"/>
<polygon fill="black" stroke="black" points="222.229,-29.6366 231.832,-25.16 221.533,-22.6713 222.229,-29.6366"/>
<text text-anchor="middle" x="9" y="-231.8" font-family="Times New Roman,serif" font-size="14.00"> 53</text>
</g>
<!-- vs/core/sessionstart -->
<g id="node2" class="node"><title>vs/core/sessionstart</title>
<ellipse fill="none" stroke="black" cx="1066" cy="-366" rx="82.5854" ry="18"/>
<text text-anchor="middle" x="1066" y="-362.3" font-family="Times New Roman,serif" font-size="14.00">vs/core/sessionstart</text>
</g>
<!-- Unknown -->
<g id="node6" class="node"><title>Unknown</title>
<ellipse fill="none" stroke="black" cx="738" cy="-279" rx="46.2923" ry="18"/>
<text text-anchor="middle" x="738" y="-275.3" font-family="Times New Roman,serif" font-size="14.00">Unknown</text>
</g>
<!-- vs/core/sessionstart&#45;&gt;Unknown -->
<g id="edge24" class="edge"><title>vs/core/sessionstart&#45;&gt;Unknown</title>
<path fill="none" stroke="black" d="M1015.11,-351.812C952.214,-335.513 846.041,-307.999 784.996,-292.179"/>
<polygon fill="black" stroke="black" points="785.794,-288.77 775.236,-289.65 784.038,-295.546 785.794,-288.77"/>
<text text-anchor="middle" x="933.5" y="-318.8" font-family="Times New Roman,serif" font-size="14.00"> 102</text>
</g>
<!-- vs/core/sessionend -->
<g id="node13" class="node"><title>vs/core/sessionend</title>
<ellipse fill="none" stroke="black" cx="1180" cy="-192" rx="79.8859" ry="18"/>
<text text-anchor="middle" x="1180" y="-188.3" font-family="Times New Roman,serif" font-size="14.00">vs/core/sessionend</text>
</g>
<!-- vs/core/sessionstart&#45;&gt;vs/core/sessionend -->
<g id="edge15" class="edge"><title>vs/core/sessionstart&#45;&gt;vs/core/sessionend</title>
<path fill="none" stroke="black" d="M1078.31,-347.855C1094.99,-324.453 1125.51,-281.062 1150,-243 1154.96,-235.29 1160.17,-226.778 1164.82,-218.996"/>
<polygon fill="black" stroke="black" points="1167.9,-220.674 1169.99,-210.287 1161.88,-217.102 1167.9,-220.674"/>
<text text-anchor="middle" x="1149.5" y="-275.3" font-family="Times New Roman,serif" font-size="14.00"> 265</text>
</g>
<!-- Edit.Undo -->
<g id="node3" class="node"><title>Edit.Undo</title>
<ellipse fill="none" stroke="black" cx="548" cy="-453" rx="48.1917" ry="18"/>
<text text-anchor="middle" x="548" y="-449.3" font-family="Times New Roman,serif" font-size="14.00">Edit.Undo</text>
</g>
<!-- Edit.Undo&#45;&gt;Edit.Undo -->
<g id="edge3" class="edge"><title>Edit.Undo&#45;&gt;Edit.Undo</title>
<path fill="none" stroke="black" d="M591.543,-460.851C604.252,-460.58 614.096,-457.963 614.096,-453 614.096,-449.51 609.229,-447.181 601.922,-446.01"/>
<polygon fill="black" stroke="black" points="601.798,-442.488 591.543,-445.149 601.219,-449.464 601.798,-442.488"/>
<text text-anchor="middle" x="623.096" y="-449.3" font-family="Times New Roman,serif" font-size="14.00"> 60</text>
</g>
<!-- Debug.Start -->
<g id="node4" class="node"><title>Debug.Start</title>
<ellipse fill="none" stroke="black" cx="664" cy="-366" rx="53.8905" ry="18"/>
<text text-anchor="middle" x="664" y="-362.3" font-family="Times New Roman,serif" font-size="14.00">Debug.Start</text>
</g>
<!-- Debug.Start&#45;&gt;Unknown -->
<g id="edge29" class="edge"><title>Debug.Start&#45;&gt;Unknown</title>
<path fill="none" stroke="black" d="M678.268,-348.611C689.222,-336.029 704.516,-318.462 716.885,-304.253"/>
<polygon fill="black" stroke="black" points="719.849,-306.179 723.776,-296.339 714.57,-301.583 719.849,-306.179"/>
<text text-anchor="middle" x="715" y="-318.8" font-family="Times New Roman,serif" font-size="14.00"> 64</text>
</g>
<!-- Edit.Cut -->
<g id="node5" class="node"><title>Edit.Cut</title>
<ellipse fill="none" stroke="black" cx="351" cy="-192" rx="40.8928" ry="18"/>
<text text-anchor="middle" x="351" y="-188.3" font-family="Times New Roman,serif" font-size="14.00">Edit.Cut</text>
</g>
<!-- Edit.Paste -->
<g id="node9" class="node"><title>Edit.Paste</title>
<ellipse fill="none" stroke="black" cx="420" cy="-105" rx="47.3916" ry="18"/>
<text text-anchor="middle" x="420" y="-101.3" font-family="Times New Roman,serif" font-size="14.00">Edit.Paste</text>
</g>
<!-- Edit.Cut&#45;&gt;Edit.Paste -->
<g id="edge14" class="edge"><title>Edit.Cut&#45;&gt;Edit.Paste</title>
<path fill="none" stroke="black" d="M362.581,-174.462C369.674,-164.562 379.076,-151.837 388,-141 391.107,-137.226 394.495,-133.32 397.865,-129.546"/>
<polygon fill="black" stroke="black" points="400.525,-131.823 404.664,-122.07 395.347,-127.114 400.525,-131.823"/>
<text text-anchor="middle" x="397" y="-144.8" font-family="Times New Roman,serif" font-size="14.00"> 51</text>
</g>
<!-- Unknown&#45;&gt;Edit.Delete -->
<g id="edge17" class="edge"><title>Unknown&#45;&gt;Edit.Delete</title>
<path fill="none" stroke="black" d="M741.739,-297.187C745.618,-320.052 748.471,-360.333 727,-384 722.31,-389.17 541.568,-424.252 449.194,-441.901"/>
<polygon fill="black" stroke="black" points="448.359,-438.498 439.192,-443.81 449.671,-445.373 448.359,-438.498"/>
<text text-anchor="middle" x="752" y="-362.3" font-family="Times New Roman,serif" font-size="14.00"> 51</text>
</g>
<!-- Unknown&#45;&gt;Unknown -->
<g id="edge27" class="edge"><title>Unknown&#45;&gt;Unknown</title>
<path fill="none" stroke="black" d="M779.645,-286.863C792.274,-286.666 802.146,-284.045 802.146,-279 802.146,-275.453 797.265,-273.104 789.977,-271.953"/>
<polygon fill="black" stroke="black" points="789.889,-268.436 779.645,-271.137 789.338,-275.414 789.889,-268.436"/>
<text text-anchor="middle" x="814.646" y="-275.3" font-family="Times New Roman,serif" font-size="14.00"> 243</text>
</g>
<!-- Unknown&#45;&gt;Edit.BreakLine -->
<g id="edge30" class="edge"><title>Unknown&#45;&gt;Edit.BreakLine</title>
<path fill="none" stroke="black" d="M708.774,-292.964C682.943,-304.026 644.034,-319.726 609,-330 573.887,-340.297 533.872,-348.635 501.278,-354.586"/>
<polygon fill="black" stroke="black" points="500.64,-351.144 491.415,-356.356 501.876,-358.034 500.64,-351.144"/>
<text text-anchor="middle" x="662" y="-318.8" font-family="Times New Roman,serif" font-size="14.00"> 65</text>
</g>
<!-- Edit.Copy -->
<g id="node8" class="node"><title>Edit.Copy</title>
<ellipse fill="none" stroke="black" cx="534" cy="-192" rx="48.1917" ry="18"/>
<text text-anchor="middle" x="534" y="-188.3" font-family="Times New Roman,serif" font-size="14.00">Edit.Copy</text>
</g>
<!-- Unknown&#45;&gt;Edit.Copy -->
<g id="edge21" class="edge"><title>Unknown&#45;&gt;Edit.Copy</title>
<path fill="none" stroke="black" d="M709.75,-264.498C687.671,-254.107 656.116,-239.607 628,-228 611.605,-221.231 593.375,-214.308 577.366,-208.424"/>
<polygon fill="black" stroke="black" points="578.315,-205.045 567.721,-204.906 575.916,-211.621 578.315,-205.045"/>
<text text-anchor="middle" x="671" y="-231.8" font-family="Times New Roman,serif" font-size="14.00"> 76</text>
</g>
<!-- Debug.StartDebugTarget -->
<g id="node11" class="node"><title>Debug.StartDebugTarget</title>
<ellipse fill="none" stroke="black" cx="943" cy="-192" rx="101.282" ry="18"/>
<text text-anchor="middle" x="943" y="-188.3" font-family="Times New Roman,serif" font-size="14.00">Debug.StartDebugTarget</text>
</g>
<!-- Unknown&#45;&gt;Debug.StartDebugTarget -->
<g id="edge6" class="edge"><title>Unknown&#45;&gt;Debug.StartDebugTarget</title>
<path fill="none" stroke="black" d="M770.897,-266.165C788.776,-259.597 811.214,-251.131 831,-243 853.716,-233.665 878.697,-222.592 899.292,-213.243"/>
<polygon fill="black" stroke="black" points="900.774,-216.413 908.421,-209.081 897.87,-210.044 900.774,-216.413"/>
<text text-anchor="middle" x="874" y="-231.8" font-family="Times New Roman,serif" font-size="14.00"> 68</text>
</g>
<!-- Debug.StopDebugging -->
<g id="node12" class="node"><title>Debug.StopDebugging</title>
<ellipse fill="none" stroke="black" cx="730" cy="-192" rx="93.6835" ry="18"/>
<text text-anchor="middle" x="730" y="-188.3" font-family="Times New Roman,serif" font-size="14.00">Debug.StopDebugging</text>
</g>
<!-- Unknown&#45;&gt;Debug.StopDebugging -->
<g id="edge13" class="edge"><title>Unknown&#45;&gt;Debug.StopDebugging</title>
<path fill="none" stroke="black" d="M736.381,-260.799C735.286,-249.163 733.816,-233.548 732.563,-220.237"/>
<polygon fill="black" stroke="black" points="736.038,-219.803 731.617,-210.175 729.069,-220.459 736.038,-219.803"/>
<text text-anchor="middle" x="744" y="-231.8" font-family="Times New Roman,serif" font-size="14.00"> 77</text>
</g>
<!-- Unknown&#45;&gt;vs/core/sessionend -->
<g id="edge18" class="edge"><title>Unknown&#45;&gt;vs/core/sessionend</title>
<path fill="none" stroke="black" d="M784.147,-278.967C851.853,-279.143 981.408,-274.73 1086,-243 1107.39,-236.511 1129.54,-224.997 1146.97,-214.652"/>
<polygon fill="black" stroke="black" points="1148.9,-217.573 1155.62,-209.382 1145.26,-211.595 1148.9,-217.573"/>
<text text-anchor="middle" x="1133.5" y="-231.8" font-family="Times New Roman,serif" font-size="14.00"> 105</text>
</g>
<!-- Edit.BreakLine&#45;&gt;Edit.Delete -->
<g id="edge4" class="edge"><title>Edit.BreakLine&#45;&gt;Edit.Delete</title>
<path fill="none" stroke="black" d="M429.812,-384.286C425.673,-393.991 420.261,-406.271 415,-417 413.539,-419.98 411.958,-423.073 410.353,-426.131"/>
<polygon fill="black" stroke="black" points="407.207,-424.591 405.564,-435.058 413.375,-427.901 407.207,-424.591"/>
<text text-anchor="middle" x="432" y="-405.8" font-family="Times New Roman,serif" font-size="14.00"> 62</text>
</g>
<!-- Edit.BreakLine&#45;&gt;Unknown -->
<g id="edge12" class="edge"><title>Edit.BreakLine&#45;&gt;Unknown</title>
<path fill="none" stroke="black" d="M488.675,-355.171C513.321,-349.493 542.845,-341.218 568,-330 579.146,-325.029 579.787,-319.818 591,-315 621.186,-302.03 657.017,-293.374 685.746,-287.915"/>
<polygon fill="black" stroke="black" points="686.384,-291.356 695.591,-286.115 685.125,-284.47 686.384,-291.356"/>
<text text-anchor="middle" x="600" y="-318.8" font-family="Times New Roman,serif" font-size="14.00"> 51</text>
</g>
<!-- Edit.BreakLine&#45;&gt;Edit.BreakLine -->
<g id="edge11" class="edge"><title>Edit.BreakLine&#45;&gt;Edit.BreakLine</title>
<path fill="none" stroke="black" d="M495.47,-373.719C509.209,-373.085 519.344,-370.512 519.344,-366 519.344,-362.687 513.878,-360.419 505.533,-359.197"/>
<polygon fill="black" stroke="black" points="505.746,-355.702 495.47,-358.281 505.112,-362.673 505.746,-355.702"/>
<text text-anchor="middle" x="531.844" y="-362.3" font-family="Times New Roman,serif" font-size="14.00"> 115</text>
</g>
<!-- Edit.BreakLine&#45;&gt;Edit.Copy -->
<g id="edge10" class="edge"><title>Edit.BreakLine&#45;&gt;Edit.Copy</title>
<path fill="none" stroke="black" d="M482.81,-353.294C495.461,-348.046 508.133,-340.568 517,-330 542.657,-299.422 542.126,-250.646 538.622,-220.292"/>
<polygon fill="black" stroke="black" points="542.041,-219.455 537.239,-210.01 535.103,-220.387 542.041,-219.455"/>
<text text-anchor="middle" x="550" y="-275.3" font-family="Times New Roman,serif" font-size="14.00"> 72</text>
</g>
<!-- Edit.BreakLine&#45;&gt;Edit.Paste -->
<g id="edge19" class="edge"><title>Edit.BreakLine&#45;&gt;Edit.Paste</title>
<path fill="none" stroke="black" d="M433.446,-347.724C428.8,-324.173 420.911,-280.615 418,-243 415.067,-205.104 416.574,-161.141 418.122,-133.449"/>
<polygon fill="black" stroke="black" points="421.624,-133.525 418.73,-123.333 414.636,-133.105 421.624,-133.525"/>
<text text-anchor="middle" x="427" y="-231.8" font-family="Times New Roman,serif" font-size="14.00"> 98</text>
</g>
<!-- Edit.BreakLine&#45;&gt;File.SaveSelectedItems -->
<g id="edge34" class="edge"><title>Edit.BreakLine&#45;&gt;File.SaveSelectedItems</title>
<path fill="none" stroke="black" d="M378.614,-358.42C331.843,-349.518 274,-328.671 274,-280 274,-280 274,-280 274,-104 274,-82.0221 285.896,-60.1738 297.456,-44.132"/>
<polygon fill="black" stroke="black" points="300.487,-45.9284 303.765,-35.8533 294.92,-41.6852 300.487,-45.9284"/>
<text text-anchor="middle" x="283" y="-188.3" font-family="Times New Roman,serif" font-size="14.00"> 71</text>
</g>
<!-- Edit.InsertTab -->
<g id="node14" class="node"><title>Edit.InsertTab</title>
<ellipse fill="none" stroke="black" cx="145" cy="-279" rx="63.0888" ry="18"/>
<text text-anchor="middle" x="145" y="-275.3" font-family="Times New Roman,serif" font-size="14.00">Edit.InsertTab</text>
</g>
<!-- Edit.BreakLine&#45;&gt;Edit.InsertTab -->
<g id="edge36" class="edge"><title>Edit.BreakLine&#45;&gt;Edit.InsertTab</title>
<path fill="none" stroke="black" d="M372.778,-364.731C324.423,-362.347 257.545,-354.302 204,-330 190.36,-323.809 177.404,-313.519 167.125,-303.877"/>
<polygon fill="black" stroke="black" points="169.409,-301.215 159.82,-296.709 164.507,-306.211 169.409,-301.215"/>
<text text-anchor="middle" x="213" y="-318.8" font-family="Times New Roman,serif" font-size="14.00"> 58</text>
</g>
<!-- Edit.Copy&#45;&gt;Unknown -->
<g id="edge28" class="edge"><title>Edit.Copy&#45;&gt;Unknown</title>
<path fill="none" stroke="black" d="M552.743,-208.753C566.659,-219.741 586.523,-233.995 606,-243 631.439,-254.762 661.531,-263.124 686.554,-268.719"/>
<polygon fill="black" stroke="black" points="686.07,-272.195 696.582,-270.875 687.541,-265.351 686.07,-272.195"/>
<text text-anchor="middle" x="615" y="-231.8" font-family="Times New Roman,serif" font-size="14.00"> 53</text>
</g>
<!-- Edit.Copy&#45;&gt;Edit.BreakLine -->
<g id="edge31" class="edge"><title>Edit.Copy&#45;&gt;Edit.BreakLine</title>
<path fill="none" stroke="black" d="M528.316,-209.987C518.867,-236.878 498.237,-290.27 471,-330 468.397,-333.797 465.367,-337.559 462.208,-341.13"/>
<polygon fill="black" stroke="black" points="459.503,-338.898 455.205,-348.582 464.604,-343.692 459.503,-338.898"/>
<text text-anchor="middle" x="517" y="-275.3" font-family="Times New Roman,serif" font-size="14.00"> 82</text>
</g>
<!-- Edit.Copy&#45;&gt;Edit.Copy -->
<g id="edge22" class="edge"><title>Edit.Copy&#45;&gt;Edit.Copy</title>
<path fill="none" stroke="black" d="M577.543,-199.851C590.252,-199.58 600.096,-196.963 600.096,-192 600.096,-188.51 595.229,-186.181 587.922,-185.01"/>
<polygon fill="black" stroke="black" points="587.798,-181.488 577.543,-184.149 587.219,-188.464 587.798,-181.488"/>
<text text-anchor="middle" x="609.096" y="-188.3" font-family="Times New Roman,serif" font-size="14.00"> 63</text>
</g>
<!-- Edit.Copy&#45;&gt;Edit.Paste -->
<g id="edge2" class="edge"><title>Edit.Copy&#45;&gt;Edit.Paste</title>
<path fill="none" stroke="black" d="M529.293,-173.73C525.598,-163.056 519.466,-149.767 510,-141 498.807,-130.633 484.199,-123.214 470.019,-117.957"/>
<polygon fill="black" stroke="black" points="470.912,-114.564 460.317,-114.653 468.655,-121.19 470.912,-114.564"/>
<text text-anchor="middle" x="534.5" y="-144.8" font-family="Times New Roman,serif" font-size="14.00"> 108</text>
</g>
<!-- Edit.Paste&#45;&gt;Edit.Delete -->
<g id="edge16" class="edge"><title>Edit.Paste&#45;&gt;Edit.Delete</title>
<path fill="none" stroke="black" d="M372.633,-106.912C271.994,-110.134 46,-124.747 46,-191 46,-367 46,-367 46,-367 46,-425.959 235.917,-444.179 335.955,-449.687"/>
<polygon fill="black" stroke="black" points="336.056,-453.197 346.225,-450.225 336.422,-446.206 336.056,-453.197"/>
<text text-anchor="middle" x="55" y="-275.3" font-family="Times New Roman,serif" font-size="14.00"> 65</text>
</g>
<!-- Edit.Paste&#45;&gt;Edit.BreakLine -->
<g id="edge25" class="edge"><title>Edit.Paste&#45;&gt;Edit.BreakLine</title>
<path fill="none" stroke="black" d="M426.791,-122.839C428.806,-128.518 430.795,-134.952 432,-141 447.145,-216.993 440.554,-237.551 443,-315 443.21,-321.663 443.565,-323.357 443,-330 442.78,-332.58 442.471,-335.255 442.108,-337.926"/>
<polygon fill="black" stroke="black" points="438.623,-337.56 440.514,-347.985 445.536,-338.656 438.623,-337.56"/>
<text text-anchor="middle" x="452" y="-231.8" font-family="Times New Roman,serif" font-size="14.00"> 94</text>
</g>
<!-- Edit.Paste&#45;&gt;Edit.Copy -->
<g id="edge23" class="edge"><title>Edit.Paste&#45;&gt;Edit.Copy</title>
<path fill="none" stroke="black" d="M441.629,-121.112C450.216,-127.2 460.14,-134.344 469,-141 477.602,-147.462 479.496,-149.409 488,-156 493.542,-160.296 499.486,-164.854 505.199,-169.211"/>
<polygon fill="black" stroke="black" points="503.253,-172.128 513.331,-175.398 507.491,-166.557 503.253,-172.128"/>
<text text-anchor="middle" x="497" y="-144.8" font-family="Times New Roman,serif" font-size="14.00"> 68</text>
</g>
<!-- Edit.Paste&#45;&gt;Edit.Paste -->
<g id="edge5" class="edge"><title>Edit.Paste&#45;&gt;Edit.Paste</title>
<path fill="none" stroke="black" d="M462.802,-112.858C475.537,-112.623 485.446,-110.004 485.446,-105 485.446,-101.482 480.547,-99.1422 473.211,-97.9817"/>
<polygon fill="black" stroke="black" points="473.051,-94.4575 462.802,-97.1423 472.488,-101.435 473.051,-94.4575"/>
<text text-anchor="middle" x="494.446" y="-101.3" font-family="Times New Roman,serif" font-size="14.00"> 62</text>
</g>
<!-- Edit.Paste&#45;&gt;File.SaveSelectedItems -->
<g id="edge9" class="edge"><title>Edit.Paste&#45;&gt;File.SaveSelectedItems</title>
<path fill="none" stroke="black" d="M401.475,-88.4097C386.067,-75.4424 363.912,-56.7973 346.444,-42.0963"/>
<polygon fill="black" stroke="black" points="348.693,-39.415 338.789,-35.6539 344.186,-44.7708 348.693,-39.415"/>
<text text-anchor="middle" x="385" y="-57.8" font-family="Times New Roman,serif" font-size="14.00"> 88</text>
</g>
<!-- File.SaveSelectedItems&#45;&gt;Unknown -->
<g id="edge26" class="edge"><title>File.SaveSelectedItems&#45;&gt;Unknown</title>
<path fill="none" stroke="black" d="M408.151,-24.2384C585.554,-36.7194 972.662,-74.9246 1053,-174 1123.89,-261.428 902.935,-275.979 794.437,-277.971"/>
<polygon fill="black" stroke="black" points="794.246,-274.474 784.301,-278.127 794.354,-281.473 794.246,-274.474"/>
<text text-anchor="middle" x="1040" y="-144.8" font-family="Times New Roman,serif" font-size="14.00"> 71</text>
</g>
<!-- File.SaveSelectedItems&#45;&gt;Edit.BreakLine -->
<g id="edge33" class="edge"><title>File.SaveSelectedItems&#45;&gt;Edit.BreakLine</title>
<path fill="none" stroke="black" d="M281.888,-34.733C273.617,-39.7953 265.639,-46.1732 260,-54 224.145,-103.762 216.239,-287.026 260,-330 275.104,-344.833 323.601,-353.759 366.018,-358.882"/>
<polygon fill="black" stroke="black" points="365.747,-362.374 376.082,-360.041 366.548,-355.42 365.747,-362.374"/>
<text text-anchor="middle" x="240" y="-188.3" font-family="Times New Roman,serif" font-size="14.00"> 53</text>
</g>
<!-- File.SaveSelectedItems&#45;&gt;Edit.Copy -->
<g id="edge20" class="edge"><title>File.SaveSelectedItems&#45;&gt;Edit.Copy</title>
<path fill="none" stroke="black" d="M383.192,-31.3008C423.163,-41.3276 474.017,-58.5996 512,-87 535.71,-104.728 541.892,-112.831 551,-141 553.539,-148.851 552.191,-157.362 549.376,-165.098"/>
<polygon fill="black" stroke="black" points="546.114,-163.819 545.208,-174.375 552.499,-166.688 546.114,-163.819"/>
<text text-anchor="middle" x="554" y="-101.3" font-family="Times New Roman,serif" font-size="14.00"> 63</text>
</g>
<!-- File.SaveSelectedItems&#45;&gt;File.SaveSelectedItems -->
<g id="edge8" class="edge"><title>File.SaveSelectedItems&#45;&gt;File.SaveSelectedItems</title>
<path fill="none" stroke="black" d="M405.617,-25.4131C421.086,-24.4495 431.892,-21.9785 431.892,-18 431.892,-14.9539 425.558,-12.7916 415.646,-11.5128"/>
<polygon fill="black" stroke="black" points="415.897,-8.02114 405.617,-10.5869 415.253,-14.9915 415.897,-8.02114"/>
<text text-anchor="middle" x="440.892" y="-14.3" font-family="Times New Roman,serif" font-size="14.00"> 82</text>
</g>
<!-- Debug.StartDebugTarget&#45;&gt;Unknown -->
<g id="edge32" class="edge"><title>Debug.StartDebugTarget&#45;&gt;Unknown</title>
<path fill="none" stroke="black" d="M871.039,-204.752C848.25,-210.062 823.428,-217.563 802,-228 787.617,-235.005 773.412,-245.623 762.052,-255.274"/>
<polygon fill="black" stroke="black" points="759.524,-252.836 754.321,-262.066 764.144,-258.095 759.524,-252.836"/>
<text text-anchor="middle" x="814.5" y="-231.8" font-family="Times New Roman,serif" font-size="14.00"> 137</text>
</g>
</g>
</svg>
