<?xml version="1.0" encoding="UTF-8" standalone="no"?>
<!DOCTYPE svg PUBLIC "-//W3C//DTD SVG 1.1//EN"
 "http://www.w3.org/Graphics/SVG/1.1/DTD/svg11.dtd">
<!-- Generated by graphviz version 2.38.0 (20140413.2041)
 -->
<!-- Title: %3 Pages: 1 -->
<svg width="1615pt" height="1175pt"
 viewBox="0.00 0.00 1615.00 1175.00" xmlns="http://www.w3.org/2000/svg" xmlns:xlink="http://www.w3.org/1999/xlink">
<g id="graph0" class="graph" transform="scale(1 1) rotate(0) translate(4 1171)">
<title>%3</title>
<polygon fill="white" stroke="none" points="-4,4 -4,-1171 1611,-1171 1611,4 -4,4"/>
<!-- Edit.Delete -->
<g id="node1" class="node"><title>Edit.Delete</title>
<ellipse fill="none" stroke="black" cx="953" cy="-1149" rx="50.0912" ry="18"/>
<text text-anchor="middle" x="953" y="-1145.3" font-family="Times New Roman,serif" font-size="14.00">Edit.Delete</text>
</g>
<!-- Edit.Delete&#45;&gt;Edit.Delete -->
<g id="edge2" class="edge"><title>Edit.Delete&#45;&gt;Edit.Delete</title>
<path fill="none" stroke="black" d="M998.151,-1156.84C1011.08,-1156.54 1021.05,-1153.92 1021.05,-1149 1021.05,-1145.46 1015.9,-1143.12 1008.2,-1141.96"/>
<polygon fill="black" stroke="black" points="1008.4,-1138.47 998.151,-1141.16 1007.84,-1145.45 1008.4,-1138.47"/>
<text text-anchor="middle" x="1030.05" y="-1145.3" font-family="Times New Roman,serif" font-size="14.00"> 41</text>
</g>
<!-- Edit.BreakLine -->
<g id="node9" class="node"><title>Edit.BreakLine</title>
<ellipse fill="none" stroke="black" cx="662" cy="-1062" rx="64.189" ry="18"/>
<text text-anchor="middle" x="662" y="-1058.3" font-family="Times New Roman,serif" font-size="14.00">Edit.BreakLine</text>
</g>
<!-- Edit.Delete&#45;&gt;Edit.BreakLine -->
<g id="edge68" class="edge"><title>Edit.Delete&#45;&gt;Edit.BreakLine</title>
<path fill="none" stroke="black" d="M906.072,-1142.36C868.403,-1137.06 814.484,-1127.7 769,-1113 744.914,-1105.22 719.176,-1093.31 698.98,-1083.07"/>
<polygon fill="black" stroke="black" points="700.322,-1079.83 689.83,-1078.36 697.115,-1086.05 700.322,-1079.83"/>
<text text-anchor="middle" x="778" y="-1101.8" font-family="Times New Roman,serif" font-size="14.00"> 14</text>
</g>
<!-- Solution.Close -->
<g id="node2" class="node"><title>Solution.Close</title>
<ellipse fill="none" stroke="black" cx="909" cy="-540" rx="64.189" ry="18"/>
<text text-anchor="middle" x="909" y="-536.3" font-family="Times New Roman,serif" font-size="14.00">Solution.Close</text>
</g>
<!-- File.Exit -->
<g id="node6" class="node"><title>File.Exit</title>
<ellipse fill="none" stroke="black" cx="937" cy="-453" rx="40.0939" ry="18"/>
<text text-anchor="middle" x="937" y="-449.3" font-family="Times New Roman,serif" font-size="14.00">File.Exit</text>
</g>
<!-- Solution.Close&#45;&gt;File.Exit -->
<g id="edge52" class="edge"><title>Solution.Close&#45;&gt;File.Exit</title>
<path fill="none" stroke="black" d="M914.666,-521.799C918.563,-509.97 923.814,-494.03 928.245,-480.578"/>
<polygon fill="black" stroke="black" points="931.633,-481.478 931.438,-470.885 924.985,-479.288 931.633,-481.478"/>
<text text-anchor="middle" x="934" y="-492.8" font-family="Times New Roman,serif" font-size="14.00"> 23</text>
</g>
<!-- Window.ResetWindowLayout -->
<g id="node7" class="node"><title>Window.ResetWindowLayout</title>
<ellipse fill="none" stroke="black" cx="1117" cy="-453" rx="121.578" ry="18"/>
<text text-anchor="middle" x="1117" y="-449.3" font-family="Times New Roman,serif" font-size="14.00">Window.ResetWindowLayout</text>
</g>
<!-- Solution.Close&#45;&gt;Window.ResetWindowLayout -->
<g id="edge62" class="edge"><title>Solution.Close&#45;&gt;Window.ResetWindowLayout</title>
<path fill="none" stroke="black" d="M943.815,-524.773C977.824,-510.875 1029.9,-489.594 1068.07,-473.996"/>
<polygon fill="black" stroke="black" points="1069.52,-477.184 1077.45,-470.161 1066.87,-470.704 1069.52,-477.184"/>
<text text-anchor="middle" x="1035" y="-492.8" font-family="Times New Roman,serif" font-size="14.00"> 29</text>
</g>
<!-- Project.Open -->
<g id="node18" class="node"><title>Project.Open</title>
<ellipse fill="none" stroke="black" cx="655" cy="-453" rx="59.2899" ry="18"/>
<text text-anchor="middle" x="655" y="-449.3" font-family="Times New Roman,serif" font-size="14.00">Project.Open</text>
</g>
<!-- Solution.Close&#45;&gt;Project.Open -->
<g id="edge20" class="edge"><title>Solution.Close&#45;&gt;Project.Open</title>
<path fill="none" stroke="black" d="M869.313,-525.719C824.278,-510.648 750.855,-486.077 702.732,-469.973"/>
<polygon fill="black" stroke="black" points="703.758,-466.626 693.164,-466.771 701.536,-473.264 703.758,-466.626"/>
<text text-anchor="middle" x="807" y="-492.8" font-family="Times New Roman,serif" font-size="14.00"> 45</text>
</g>
<!-- VS.Close -->
<g id="node24" class="node"><title>VS.Close</title>
<ellipse fill="none" stroke="black" cx="937" cy="-366" rx="46.2923" ry="18"/>
<text text-anchor="middle" x="937" y="-362.3" font-family="Times New Roman,serif" font-size="14.00">VS.Close</text>
</g>
<!-- Solution.Close&#45;&gt;VS.Close -->
<g id="edge35" class="edge"><title>Solution.Close&#45;&gt;VS.Close</title>
<path fill="none" stroke="black" d="M892.664,-522.441C874.51,-501.93 849.425,-465.911 863,-435 871.524,-415.59 888.626,-399.287 904.243,-387.514"/>
<polygon fill="black" stroke="black" points="906.615,-390.12 912.703,-381.449 902.536,-384.431 906.615,-390.12"/>
<text text-anchor="middle" x="875.5" y="-449.3" font-family="Times New Roman,serif" font-size="14.00"> 191</text>
</g>
<!-- File.CloseSolution -->
<g id="node26" class="node"><title>File.CloseSolution</title>
<ellipse fill="none" stroke="black" cx="1334" cy="-453" rx="77.1866" ry="18"/>
<text text-anchor="middle" x="1334" y="-449.3" font-family="Times New Roman,serif" font-size="14.00">File.CloseSolution</text>
</g>
<!-- Solution.Close&#45;&gt;File.CloseSolution -->
<g id="edge38" class="edge"><title>Solution.Close&#45;&gt;File.CloseSolution</title>
<path fill="none" stroke="black" d="M959.843,-528.831C1036.67,-513.466 1182.39,-484.321 1267.54,-467.293"/>
<polygon fill="black" stroke="black" points="1268.24,-470.722 1277.36,-465.329 1266.86,-463.858 1268.24,-470.722"/>
<text text-anchor="middle" x="1156" y="-492.8" font-family="Times New Roman,serif" font-size="14.00"> 20</text>
</g>
<!-- Edit.Undo -->
<g id="node3" class="node"><title>Edit.Undo</title>
<ellipse fill="none" stroke="black" cx="550" cy="-975" rx="48.1917" ry="18"/>
<text text-anchor="middle" x="550" y="-971.3" font-family="Times New Roman,serif" font-size="14.00">Edit.Undo</text>
</g>
<!-- Edit.Undo&#45;&gt;Edit.Undo -->
<g id="edge4" class="edge"><title>Edit.Undo&#45;&gt;Edit.Undo</title>
<path fill="none" stroke="black" d="M593.543,-982.851C606.252,-982.58 616.096,-979.963 616.096,-975 616.096,-971.51 611.229,-969.181 603.922,-968.01"/>
<polygon fill="black" stroke="black" points="603.798,-964.488 593.543,-967.149 603.219,-971.464 603.798,-964.488"/>
<text text-anchor="middle" x="625.096" y="-971.3" font-family="Times New Roman,serif" font-size="14.00"> 19</text>
</g>
<!-- File.SaveAll -->
<g id="node4" class="node"><title>File.SaveAll</title>
<ellipse fill="none" stroke="black" cx="774" cy="-714" rx="53.8905" ry="18"/>
<text text-anchor="middle" x="774" y="-710.3" font-family="Times New Roman,serif" font-size="14.00">File.SaveAll</text>
</g>
<!-- Project.Close -->
<g id="node8" class="node"><title>Project.Close</title>
<ellipse fill="none" stroke="black" cx="788" cy="-627" rx="59.5901" ry="18"/>
<text text-anchor="middle" x="788" y="-623.3" font-family="Times New Roman,serif" font-size="14.00">Project.Close</text>
</g>
<!-- File.SaveAll&#45;&gt;Project.Close -->
<g id="edge60" class="edge"><title>File.SaveAll&#45;&gt;Project.Close</title>
<path fill="none" stroke="black" d="M776.833,-695.799C778.75,-684.163 781.322,-668.548 783.514,-655.237"/>
<polygon fill="black" stroke="black" points="786.999,-655.611 785.171,-645.175 780.092,-654.474 786.999,-655.611"/>
<text text-anchor="middle" x="791" y="-666.8" font-family="Times New Roman,serif" font-size="14.00"> 15</text>
</g>
<!-- Debug.Start -->
<g id="node5" class="node"><title>Debug.Start</title>
<ellipse fill="none" stroke="black" cx="1442" cy="-105" rx="53.8905" ry="18"/>
<text text-anchor="middle" x="1442" y="-101.3" font-family="Times New Roman,serif" font-size="14.00">Debug.Start</text>
</g>
<!-- Debug.StopDebugging -->
<g id="node14" class="node"><title>Debug.StopDebugging</title>
<ellipse fill="none" stroke="black" cx="1442" cy="-18" rx="93.6835" ry="18"/>
<text text-anchor="middle" x="1442" y="-14.3" font-family="Times New Roman,serif" font-size="14.00">Debug.StopDebugging</text>
</g>
<!-- Debug.Start&#45;&gt;Debug.StopDebugging -->
<g id="edge69" class="edge"><title>Debug.Start&#45;&gt;Debug.StopDebugging</title>
<path fill="none" stroke="black" d="M1442,-86.799C1442,-75.1626 1442,-59.5479 1442,-46.2368"/>
<polygon fill="black" stroke="black" points="1445.5,-46.1754 1442,-36.1754 1438.5,-46.1755 1445.5,-46.1754"/>
<text text-anchor="middle" x="1451" y="-57.8" font-family="Times New Roman,serif" font-size="14.00"> 17</text>
</g>
<!-- File.Exit&#45;&gt;VS.Close -->
<g id="edge15" class="edge"><title>File.Exit&#45;&gt;VS.Close</title>
<path fill="none" stroke="black" d="M937,-434.799C937,-423.163 937,-407.548 937,-394.237"/>
<polygon fill="black" stroke="black" points="940.5,-394.175 937,-384.175 933.5,-394.175 940.5,-394.175"/>
<text text-anchor="middle" x="946" y="-405.8" font-family="Times New Roman,serif" font-size="14.00"> 24</text>
</g>
<!-- Window.ResetWindowLayout&#45;&gt;VS.Close -->
<g id="edge64" class="edge"><title>Window.ResetWindowLayout&#45;&gt;VS.Close</title>
<path fill="none" stroke="black" d="M1082.29,-435.611C1051.46,-421.053 1006.5,-399.82 974.775,-384.838"/>
<polygon fill="black" stroke="black" points="975.922,-381.509 965.385,-380.404 972.933,-387.839 975.922,-381.509"/>
<text text-anchor="middle" x="1047" y="-405.8" font-family="Times New Roman,serif" font-size="14.00"> 29</text>
</g>
<!-- Project.Close&#45;&gt;Edit.Delete -->
<g id="edge42" class="edge"><title>Project.Close&#45;&gt;Edit.Delete</title>
<path fill="none" stroke="black" d="M837.325,-637.253C900.801,-650.596 1003,-677.579 1003,-713 1003,-1063 1003,-1063 1003,-1063 1003,-1085.89 989.363,-1108.05 976.333,-1124.01"/>
<polygon fill="black" stroke="black" points="973.531,-1121.9 969.649,-1131.76 978.831,-1126.47 973.531,-1121.9"/>
<text text-anchor="middle" x="1012" y="-884.3" font-family="Times New Roman,serif" font-size="14.00"> 20</text>
</g>
<!-- Project.Close&#45;&gt;Solution.Close -->
<g id="edge37" class="edge"><title>Project.Close&#45;&gt;Solution.Close</title>
<path fill="none" stroke="black" d="M810.476,-610.211C829.457,-596.877 856.837,-577.644 877.918,-562.835"/>
<polygon fill="black" stroke="black" points="880.063,-565.605 886.234,-556.993 876.039,-559.877 880.063,-565.605"/>
<text text-anchor="middle" x="868.5" y="-579.8" font-family="Times New Roman,serif" font-size="14.00"> 304</text>
</g>
<!-- Project.Close&#45;&gt;Project.Close -->
<g id="edge23" class="edge"><title>Project.Close&#45;&gt;Project.Close</title>
<path fill="none" stroke="black" d="M842.17,-634.767C855.69,-634.224 865.795,-631.635 865.795,-627 865.795,-623.633 860.46,-621.345 852.358,-620.138"/>
<polygon fill="black" stroke="black" points="852.441,-616.631 842.17,-619.233 851.822,-623.604 852.441,-616.631"/>
<text text-anchor="middle" x="874.795" y="-623.3" font-family="Times New Roman,serif" font-size="14.00"> 52</text>
</g>
<!-- Project.Close&#45;&gt;Project.Open -->
<g id="edge61" class="edge"><title>Project.Close&#45;&gt;Project.Open</title>
<path fill="none" stroke="black" d="M775.992,-609.23C761.06,-588.507 734.648,-552.275 711,-522 699.57,-507.368 686.387,-491.32 675.683,-478.491"/>
<polygon fill="black" stroke="black" points="678.155,-475.991 669.051,-470.572 672.789,-480.486 678.155,-475.991"/>
<text text-anchor="middle" x="747" y="-536.3" font-family="Times New Roman,serif" font-size="14.00"> 13</text>
</g>
<!-- Edit.BreakLine&#45;&gt;Edit.Delete -->
<g id="edge5" class="edge"><title>Edit.BreakLine&#45;&gt;Edit.Delete</title>
<path fill="none" stroke="black" d="M704.879,-1075.52C758.501,-1091.19 849.999,-1117.91 905.637,-1134.17"/>
<polygon fill="black" stroke="black" points="904.675,-1137.53 915.255,-1136.97 906.638,-1130.81 904.675,-1137.53"/>
<text text-anchor="middle" x="834" y="-1101.8" font-family="Times New Roman,serif" font-size="14.00"> 12</text>
</g>
<!-- Edit.BreakLine&#45;&gt;Edit.Undo -->
<g id="edge9" class="edge"><title>Edit.BreakLine&#45;&gt;Edit.Undo</title>
<path fill="none" stroke="black" d="M640.67,-1044.81C623.089,-1031.47 597.991,-1012.42 578.657,-997.748"/>
<polygon fill="black" stroke="black" points="580.576,-994.811 570.495,-991.554 576.345,-1000.39 580.576,-994.811"/>
<text text-anchor="middle" x="622" y="-1014.8" font-family="Times New Roman,serif" font-size="14.00"> 12</text>
</g>
<!-- Edit.BreakLine&#45;&gt;Edit.BreakLine -->
<g id="edge34" class="edge"><title>Edit.BreakLine&#45;&gt;Edit.BreakLine</title>
<path fill="none" stroke="black" d="M720.47,-1069.72C734.209,-1069.08 744.344,-1066.51 744.344,-1062 744.344,-1058.69 738.878,-1056.42 730.533,-1055.2"/>
<polygon fill="black" stroke="black" points="730.746,-1051.7 720.47,-1054.28 730.112,-1058.67 730.746,-1051.7"/>
<text text-anchor="middle" x="756.844" y="-1058.3" font-family="Times New Roman,serif" font-size="14.00"> 226</text>
</g>
<!-- Edit.Copy -->
<g id="node10" class="node"><title>Edit.Copy</title>
<ellipse fill="none" stroke="black" cx="344" cy="-975" rx="48.1917" ry="18"/>
<text text-anchor="middle" x="344" y="-971.3" font-family="Times New Roman,serif" font-size="14.00">Edit.Copy</text>
</g>
<!-- Edit.BreakLine&#45;&gt;Edit.Copy -->
<g id="edge30" class="edge"><title>Edit.BreakLine&#45;&gt;Edit.Copy</title>
<path fill="none" stroke="black" d="M599.134,-1057.93C513.703,-1053.15 369.505,-1042.71 352,-1026 345.92,-1020.19 343.266,-1011.75 342.327,-1003.45"/>
<polygon fill="black" stroke="black" points="345.815,-1003.07 341.925,-993.217 338.82,-1003.35 345.815,-1003.07"/>
<text text-anchor="middle" x="361" y="-1014.8" font-family="Times New Roman,serif" font-size="14.00"> 24</text>
</g>
<!-- Edit.Paste -->
<g id="node13" class="node"><title>Edit.Paste</title>
<ellipse fill="none" stroke="black" cx="343" cy="-888" rx="47.3916" ry="18"/>
<text text-anchor="middle" x="343" y="-884.3" font-family="Times New Roman,serif" font-size="14.00">Edit.Paste</text>
</g>
<!-- Edit.BreakLine&#45;&gt;Edit.Paste -->
<g id="edge40" class="edge"><title>Edit.BreakLine&#45;&gt;Edit.Paste</title>
<path fill="none" stroke="black" d="M597.719,-1060.68C495.481,-1058.54 303.778,-1047.2 269,-993 250.02,-963.422 282.957,-930.578 310.769,-909.866"/>
<polygon fill="black" stroke="black" points="313.083,-912.514 319.173,-903.844 309.006,-906.823 313.083,-912.514"/>
<text text-anchor="middle" x="278" y="-971.3" font-family="Times New Roman,serif" font-size="14.00"> 58</text>
</g>
<!-- File.SaveSelectedItems -->
<g id="node19" class="node"><title>File.SaveSelectedItems</title>
<ellipse fill="none" stroke="black" cx="844" cy="-801" rx="94.7833" ry="18"/>
<text text-anchor="middle" x="844" y="-797.3" font-family="Times New Roman,serif" font-size="14.00">File.SaveSelectedItems</text>
</g>
<!-- Edit.BreakLine&#45;&gt;File.SaveSelectedItems -->
<g id="edge59" class="edge"><title>Edit.BreakLine&#45;&gt;File.SaveSelectedItems</title>
<path fill="none" stroke="black" d="M717.803,-1052.92C780.855,-1042.49 877.527,-1022.17 899,-993 936.463,-942.101 892.171,-866.271 863.929,-827.234"/>
<polygon fill="black" stroke="black" points="866.611,-824.976 857.839,-819.035 860.992,-829.15 866.611,-824.976"/>
<text text-anchor="middle" x="923" y="-927.8" font-family="Times New Roman,serif" font-size="14.00"> 35</text>
</g>
<!-- Debug.StartDebugTarget -->
<g id="node20" class="node"><title>Debug.StartDebugTarget</title>
<ellipse fill="none" stroke="black" cx="565" cy="-714" rx="101.282" ry="18"/>
<text text-anchor="middle" x="565" y="-710.3" font-family="Times New Roman,serif" font-size="14.00">Debug.StartDebugTarget</text>
</g>
<!-- Edit.BreakLine&#45;&gt;Debug.StartDebugTarget -->
<g id="edge67" class="edge"><title>Edit.BreakLine&#45;&gt;Debug.StartDebugTarget</title>
<path fill="none" stroke="black" d="M659.583,-1043.92C656.489,-1023.19 650.606,-987.261 643,-957 622.984,-877.368 590.875,-785.693 574.814,-741.518"/>
<polygon fill="black" stroke="black" points="578.088,-740.278 571.367,-732.088 571.513,-742.682 578.088,-740.278"/>
<text text-anchor="middle" x="639" y="-884.3" font-family="Times New Roman,serif" font-size="14.00"> 19</text>
</g>
<!-- Edit.InsertTab -->
<g id="node22" class="node"><title>Edit.InsertTab</title>
<ellipse fill="none" stroke="black" cx="791" cy="-975" rx="63.0888" ry="18"/>
<text text-anchor="middle" x="791" y="-971.3" font-family="Times New Roman,serif" font-size="14.00">Edit.InsertTab</text>
</g>
<!-- Edit.BreakLine&#45;&gt;Edit.InsertTab -->
<g id="edge72" class="edge"><title>Edit.BreakLine&#45;&gt;Edit.InsertTab</title>
<path fill="none" stroke="black" d="M709.895,-1049.74C725.975,-1044.38 743.289,-1036.71 757,-1026 765.349,-1019.48 772.4,-1010.32 777.879,-1001.63"/>
<polygon fill="black" stroke="black" points="780.977,-1003.26 783.007,-992.865 774.936,-999.728 780.977,-1003.26"/>
<text text-anchor="middle" x="780" y="-1014.8" font-family="Times New Roman,serif" font-size="14.00"> 46</text>
</g>
<!-- Edit.Copy&#45;&gt;Edit.BreakLine -->
<g id="edge48" class="edge"><title>Edit.Copy&#45;&gt;Edit.BreakLine</title>
<path fill="none" stroke="black" d="M356.622,-992.813C366.129,-1004.16 380.199,-1018.4 396,-1026 429.189,-1041.96 522.87,-1051.56 589.648,-1056.56"/>
<polygon fill="black" stroke="black" points="589.479,-1060.06 599.708,-1057.3 589.989,-1053.08 589.479,-1060.06"/>
<text text-anchor="middle" x="405" y="-1014.8" font-family="Times New Roman,serif" font-size="14.00"> 18</text>
</g>
<!-- Edit.Copy&#45;&gt;Edit.Paste -->
<g id="edge3" class="edge"><title>Edit.Copy&#45;&gt;Edit.Paste</title>
<path fill="none" stroke="black" d="M332.138,-957.33C328.834,-951.766 325.689,-945.358 324,-939 321.888,-931.049 323.514,-922.613 326.543,-914.979"/>
<polygon fill="black" stroke="black" points="329.76,-916.365 330.954,-905.837 323.456,-913.323 329.76,-916.365"/>
<text text-anchor="middle" x="333" y="-927.8" font-family="Times New Roman,serif" font-size="14.00"> 41</text>
</g>
<!-- Build.BuildSolution -->
<g id="node11" class="node"><title>Build.BuildSolution</title>
<ellipse fill="none" stroke="black" cx="1442" cy="-192" rx="81.4863" ry="18"/>
<text text-anchor="middle" x="1442" y="-188.3" font-family="Times New Roman,serif" font-size="14.00">Build.BuildSolution</text>
</g>
<!-- Build.BuildSolution&#45;&gt;Debug.Start -->
<g id="edge66" class="edge"><title>Build.BuildSolution&#45;&gt;Debug.Start</title>
<path fill="none" stroke="black" d="M1442,-173.799C1442,-162.163 1442,-146.548 1442,-133.237"/>
<polygon fill="black" stroke="black" points="1445.5,-133.175 1442,-123.175 1438.5,-133.175 1445.5,-133.175"/>
<text text-anchor="middle" x="1451" y="-144.8" font-family="Times New Roman,serif" font-size="14.00"> 15</text>
</g>
<!-- Build.BuildSolution&#45;&gt;Project.Close -->
<g id="edge17" class="edge"><title>Build.BuildSolution&#45;&gt;Project.Close</title>
<path fill="none" stroke="black" d="M1441.68,-210.256C1441.39,-227.428 1441,-254.535 1441,-278 1441,-541 1441,-541 1441,-541 1441,-599.335 1025.93,-618.682 857.631,-624.129"/>
<polygon fill="black" stroke="black" points="857.275,-620.638 847.39,-624.453 857.496,-627.635 857.275,-620.638"/>
<text text-anchor="middle" x="1450" y="-405.8" font-family="Times New Roman,serif" font-size="14.00"> 16</text>
</g>
<!-- Edit.SelectAll -->
<g id="node12" class="node"><title>Edit.SelectAll</title>
<ellipse fill="none" stroke="black" cx="164" cy="-975" rx="59.5901" ry="18"/>
<text text-anchor="middle" x="164" y="-971.3" font-family="Times New Roman,serif" font-size="14.00">Edit.SelectAll</text>
</g>
<!-- Edit.SelectAll&#45;&gt;Edit.Paste -->
<g id="edge39" class="edge"><title>Edit.SelectAll&#45;&gt;Edit.Paste</title>
<path fill="none" stroke="black" d="M181.253,-957.643C193.486,-946.802 210.735,-932.974 228,-924 248.131,-913.537 271.902,-905.649 292.592,-900.035"/>
<polygon fill="black" stroke="black" points="293.678,-903.369 302.472,-897.461 291.913,-896.596 293.678,-903.369"/>
<text text-anchor="middle" x="237" y="-927.8" font-family="Times New Roman,serif" font-size="14.00"> 14</text>
</g>
<!-- Edit.Paste&#45;&gt;Edit.BreakLine -->
<g id="edge47" class="edge"><title>Edit.Paste&#45;&gt;Edit.BreakLine</title>
<path fill="none" stroke="black" d="M356.851,-905.237C387.781,-941.491 459.787,-1025.88 460,-1026 498.632,-1048 547.658,-1056.87 587.736,-1060.18"/>
<polygon fill="black" stroke="black" points="587.493,-1063.67 597.721,-1060.9 588.001,-1056.69 587.493,-1063.67"/>
<text text-anchor="middle" x="441" y="-971.3" font-family="Times New Roman,serif" font-size="14.00"> 56</text>
</g>
<!-- Edit.Paste&#45;&gt;Edit.Copy -->
<g id="edge44" class="edge"><title>Edit.Paste&#45;&gt;Edit.Copy</title>
<path fill="none" stroke="black" d="M343.202,-906.175C343.339,-917.806 343.523,-933.419 343.679,-946.734"/>
<polygon fill="black" stroke="black" points="340.18,-946.841 343.798,-956.799 347.18,-946.758 340.18,-946.841"/>
<text text-anchor="middle" x="353" y="-927.8" font-family="Times New Roman,serif" font-size="14.00"> 15</text>
</g>
<!-- Edit.Paste&#45;&gt;Edit.Paste -->
<g id="edge7" class="edge"><title>Edit.Paste&#45;&gt;Edit.Paste</title>
<path fill="none" stroke="black" d="M385.802,-895.858C398.537,-895.623 408.446,-893.004 408.446,-888 408.446,-884.482 403.547,-882.142 396.211,-880.982"/>
<polygon fill="black" stroke="black" points="396.051,-877.458 385.802,-880.142 395.488,-884.435 396.051,-877.458"/>
<text text-anchor="middle" x="417.446" y="-884.3" font-family="Times New Roman,serif" font-size="14.00"> 25</text>
</g>
<!-- Debug.StartWithoutDebugging -->
<g id="node17" class="node"><title>Debug.StartWithoutDebugging</title>
<ellipse fill="none" stroke="black" cx="196" cy="-801" rx="122.379" ry="18"/>
<text text-anchor="middle" x="196" y="-797.3" font-family="Times New Roman,serif" font-size="14.00">Debug.StartWithoutDebugging</text>
</g>
<!-- Edit.Paste&#45;&gt;Debug.StartWithoutDebugging -->
<g id="edge21" class="edge"><title>Edit.Paste&#45;&gt;Debug.StartWithoutDebugging</title>
<path fill="none" stroke="black" d="M318.063,-872.581C294.808,-859.134 259.811,-838.898 233.245,-823.536"/>
<polygon fill="black" stroke="black" points="234.997,-820.506 224.588,-818.531 231.493,-826.566 234.997,-820.506"/>
<text text-anchor="middle" x="288" y="-840.8" font-family="Times New Roman,serif" font-size="14.00"> 12</text>
</g>
<!-- Edit.Paste&#45;&gt;File.SaveSelectedItems -->
<g id="edge26" class="edge"><title>Edit.Paste&#45;&gt;File.SaveSelectedItems</title>
<path fill="none" stroke="black" d="M385.283,-879.826C469.27,-865.577 658.248,-833.515 765.6,-815.301"/>
<polygon fill="black" stroke="black" points="766.454,-818.707 775.727,-813.583 765.283,-811.805 766.454,-818.707"/>
<text text-anchor="middle" x="633" y="-840.8" font-family="Times New Roman,serif" font-size="14.00"> 33</text>
</g>
<!-- Edit.Paste&#45;&gt;Debug.StartDebugTarget -->
<g id="edge12" class="edge"><title>Edit.Paste&#45;&gt;Debug.StartDebugTarget</title>
<path fill="none" stroke="black" d="M366.554,-872.149C375.865,-866.097 386.572,-858.909 396,-852 447.536,-814.233 504.757,-766.557 537.646,-738.559"/>
<polygon fill="black" stroke="black" points="540.133,-741.038 545.465,-731.883 535.587,-735.715 540.133,-741.038"/>
<text text-anchor="middle" x="494" y="-797.3" font-family="Times New Roman,serif" font-size="14.00"> 18</text>
</g>
<!-- Debug.StopDebugging&#45;&gt;Project.Close -->
<g id="edge54" class="edge"><title>Debug.StopDebugging&#45;&gt;Project.Close</title>
<path fill="none" stroke="black" d="M1486.65,-33.8672C1516.75,-47.0258 1551,-69.5639 1551,-104 1551,-541 1551,-541 1551,-541 1551,-610.365 1046.48,-623.125 857.951,-625.471"/>
<polygon fill="black" stroke="black" points="857.829,-621.972 847.871,-625.591 857.912,-628.972 857.829,-621.972"/>
<text text-anchor="middle" x="1560" y="-318.8" font-family="Times New Roman,serif" font-size="14.00"> 24</text>
</g>
<!-- Solution.Open -->
<g id="node15" class="node"><title>Solution.Open</title>
<ellipse fill="none" stroke="black" cx="696" cy="-366" rx="63.8893" ry="18"/>
<text text-anchor="middle" x="696" y="-362.3" font-family="Times New Roman,serif" font-size="14.00">Solution.Open</text>
</g>
<!-- Solution.Open&#45;&gt;Project.Open -->
<g id="edge57" class="edge"><title>Solution.Open&#45;&gt;Project.Open</title>
<path fill="none" stroke="black" d="M688.812,-384.286C684.673,-393.991 679.261,-406.271 674,-417 672.539,-419.98 670.958,-423.073 669.353,-426.131"/>
<polygon fill="black" stroke="black" points="666.207,-424.591 664.564,-435.058 672.375,-427.901 666.207,-424.591"/>
<text text-anchor="middle" x="691" y="-405.8" font-family="Times New Roman,serif" font-size="14.00"> 11</text>
</g>
<!-- Project.Create -->
<g id="node21" class="node"><title>Project.Create</title>
<ellipse fill="none" stroke="black" cx="672" cy="-279" rx="62.2891" ry="18"/>
<text text-anchor="middle" x="672" y="-275.3" font-family="Times New Roman,serif" font-size="14.00">Project.Create</text>
</g>
<!-- Solution.Open&#45;&gt;Project.Create -->
<g id="edge13" class="edge"><title>Solution.Open&#45;&gt;Project.Create</title>
<path fill="none" stroke="black" d="M691.143,-347.799C687.825,-336.047 683.361,-320.238 679.579,-306.842"/>
<polygon fill="black" stroke="black" points="682.935,-305.848 676.85,-297.175 676.199,-307.75 682.935,-305.848"/>
<text text-anchor="middle" x="695" y="-318.8" font-family="Times New Roman,serif" font-size="14.00"> 41</text>
</g>
<!-- Project.AddNewItem -->
<g id="node16" class="node"><title>Project.AddNewItem</title>
<ellipse fill="none" stroke="black" cx="305" cy="-192" rx="87.9851" ry="18"/>
<text text-anchor="middle" x="305" y="-188.3" font-family="Times New Roman,serif" font-size="14.00">Project.AddNewItem</text>
</g>
<!-- Project.AddNewItem&#45;&gt;Project.Close -->
<g id="edge24" class="edge"><title>Project.AddNewItem&#45;&gt;Project.Close</title>
<path fill="none" stroke="black" d="M305.564,-210.168C307.669,-246.787 317.573,-333.338 364,-384 472.899,-502.832 653.983,-578.658 739.912,-609.797"/>
<polygon fill="black" stroke="black" points="738.819,-613.123 749.413,-613.198 741.178,-606.532 738.819,-613.123"/>
<text text-anchor="middle" x="404" y="-405.8" font-family="Times New Roman,serif" font-size="14.00"> 11</text>
</g>
<!-- Project.AddNewItem&#45;&gt;Edit.BreakLine -->
<g id="edge46" class="edge"><title>Project.AddNewItem&#45;&gt;Edit.BreakLine</title>
<path fill="none" stroke="black" d="M224.865,-199.514C134.499,-209.124 0,-231.276 0,-278 0,-976 0,-976 0,-976 0,-1034.76 415.587,-1053.77 588.203,-1059.13"/>
<polygon fill="black" stroke="black" points="588.123,-1062.63 598.224,-1059.43 588.335,-1055.63 588.123,-1062.63"/>
<text text-anchor="middle" x="9" y="-623.3" font-family="Times New Roman,serif" font-size="14.00"> 56</text>
</g>
<!-- Project.AddNewItem&#45;&gt;Edit.Paste -->
<g id="edge8" class="edge"><title>Project.AddNewItem&#45;&gt;Edit.Paste</title>
<path fill="none" stroke="black" d="M232.854,-202.349C156.218,-214.352 46,-238.484 46,-278 46,-802 46,-802 46,-802 46,-851.541 200.668,-873.845 286.774,-882.424"/>
<polygon fill="black" stroke="black" points="286.63,-885.926 296.92,-883.403 287.302,-878.959 286.63,-885.926"/>
<text text-anchor="middle" x="55" y="-536.3" font-family="Times New Roman,serif" font-size="14.00"> 26</text>
</g>
<!-- Project.AddNewItem&#45;&gt;Project.Open -->
<g id="edge63" class="edge"><title>Project.AddNewItem&#45;&gt;Project.Open</title>
<path fill="none" stroke="black" d="M320.222,-209.905C357.688,-250.638 458.849,-355.389 562,-417 574.996,-424.763 590.01,-431.316 604.131,-436.577"/>
<polygon fill="black" stroke="black" points="603.134,-439.937 613.729,-440.011 605.493,-433.347 603.134,-439.937"/>
<text text-anchor="middle" x="453" y="-318.8" font-family="Times New Roman,serif" font-size="14.00"> 11</text>
</g>
<!-- Debug.StartWithoutDebugging&#45;&gt;Debug.StartWithoutDebugging -->
<g id="edge22" class="edge"><title>Debug.StartWithoutDebugging&#45;&gt;Debug.StartWithoutDebugging</title>
<path fill="none" stroke="black" d="M308.192,-808.144C324.893,-807.032 336.189,-804.65 336.189,-801 336.189,-798.148 329.295,-796.071 318.315,-794.768"/>
<polygon fill="black" stroke="black" points="318.466,-791.268 308.192,-793.856 317.837,-798.239 318.466,-791.268"/>
<text text-anchor="middle" x="345.189" y="-797.3" font-family="Times New Roman,serif" font-size="14.00"> 13</text>
</g>
<!-- Project.Open&#45;&gt;Project.Close -->
<g id="edge56" class="edge"><title>Project.Open&#45;&gt;Project.Close</title>
<path fill="none" stroke="black" d="M658.067,-471.242C664.204,-500.497 680.825,-559.719 719,-591 726.634,-597.255 735.57,-602.803 744.432,-607.534"/>
<polygon fill="black" stroke="black" points="743.079,-610.772 753.582,-612.164 746.239,-604.526 743.079,-610.772"/>
<text text-anchor="middle" x="699" y="-536.3" font-family="Times New Roman,serif" font-size="14.00"> 25</text>
</g>
<!-- Project.Open&#45;&gt;Solution.Open -->
<g id="edge49" class="edge"><title>Project.Open&#45;&gt;Solution.Open</title>
<path fill="none" stroke="black" d="M652.024,-435.021C651.05,-424.965 651.234,-412.231 656,-402 658.036,-397.63 660.907,-393.585 664.188,-389.916"/>
<polygon fill="black" stroke="black" points="666.641,-392.412 671.361,-382.926 661.756,-387.399 666.641,-392.412"/>
<text text-anchor="middle" x="665" y="-405.8" font-family="Times New Roman,serif" font-size="14.00"> 49</text>
</g>
<!-- Project.Open&#45;&gt;Project.AddNewItem -->
<g id="edge28" class="edge"><title>Project.Open&#45;&gt;Project.AddNewItem</title>
<path fill="none" stroke="black" d="M599.032,-446.979C528.373,-437.383 408.942,-409.654 350,-330 321.892,-292.015 336.002,-272.462 320,-228 319.014,-225.259 317.922,-222.425 316.792,-219.611"/>
<polygon fill="black" stroke="black" points="319.978,-218.159 312.89,-210.284 313.52,-220.86 319.978,-218.159"/>
<text text-anchor="middle" x="359" y="-318.8" font-family="Times New Roman,serif" font-size="14.00"> 12</text>
</g>
<!-- Project.Open&#45;&gt;Project.Open -->
<g id="edge19" class="edge"><title>Project.Open&#45;&gt;Project.Open</title>
<path fill="none" stroke="black" d="M708.361,-460.781C721.946,-460.269 732.145,-457.676 732.145,-453 732.145,-449.566 726.645,-447.255 718.342,-446.067"/>
<polygon fill="black" stroke="black" points="718.622,-442.579 708.361,-445.219 718.029,-449.554 718.622,-442.579"/>
<text text-anchor="middle" x="741.145" y="-449.3" font-family="Times New Roman,serif" font-size="14.00"> 24</text>
</g>
<!-- Project.Open&#45;&gt;Project.Create -->
<g id="edge36" class="edge"><title>Project.Open&#45;&gt;Project.Create</title>
<path fill="none" stroke="black" d="M637.827,-435.701C618.681,-415.453 592.007,-379.698 605,-348 612.409,-329.925 627.198,-314.079 641.001,-302.241"/>
<polygon fill="black" stroke="black" points="643.42,-304.785 648.951,-295.748 638.992,-299.363 643.42,-304.785"/>
<text text-anchor="middle" x="614" y="-362.3" font-family="Times New Roman,serif" font-size="14.00"> 28</text>
</g>
<!-- File.SaveSelectedItems&#45;&gt;Project.Close -->
<g id="edge55" class="edge"><title>File.SaveSelectedItems&#45;&gt;Project.Close</title>
<path fill="none" stroke="black" d="M845.666,-782.846C847.089,-761.736 847.489,-725.113 837,-696 831.269,-680.094 820.647,-664.619 810.754,-652.46"/>
<polygon fill="black" stroke="black" points="813.229,-649.968 804.09,-644.608 807.892,-654.497 813.229,-649.968"/>
<text text-anchor="middle" x="854" y="-710.3" font-family="Times New Roman,serif" font-size="14.00"> 12</text>
</g>
<!-- File.SaveSelectedItems&#45;&gt;Edit.BreakLine -->
<g id="edge51" class="edge"><title>File.SaveSelectedItems&#45;&gt;Edit.BreakLine</title>
<path fill="none" stroke="black" d="M902.515,-815.412C913.22,-820.47 923.155,-827.429 930,-837 978.868,-905.328 988.53,-963.862 932,-1026 906.572,-1053.95 807.587,-1060.64 736.845,-1061.72"/>
<polygon fill="black" stroke="black" points="736.582,-1058.23 726.625,-1061.84 736.665,-1065.23 736.582,-1058.23"/>
<text text-anchor="middle" x="980" y="-927.8" font-family="Times New Roman,serif" font-size="14.00"> 19</text>
</g>
<!-- File.SaveSelectedItems&#45;&gt;File.SaveSelectedItems -->
<g id="edge25" class="edge"><title>File.SaveSelectedItems&#45;&gt;File.SaveSelectedItems</title>
<path fill="none" stroke="black" d="M930.617,-808.413C946.086,-807.45 956.892,-804.979 956.892,-801 956.892,-797.954 950.558,-795.792 940.646,-794.513"/>
<polygon fill="black" stroke="black" points="940.897,-791.021 930.617,-793.587 940.253,-797.991 940.897,-791.021"/>
<text text-anchor="middle" x="965.892" y="-797.3" font-family="Times New Roman,serif" font-size="14.00"> 19</text>
</g>
<!-- File.SaveSelectedItems&#45;&gt;Debug.StartDebugTarget -->
<g id="edge14" class="edge"><title>File.SaveSelectedItems&#45;&gt;Debug.StartDebugTarget</title>
<path fill="none" stroke="black" d="M807.208,-784.303C781.431,-773.689 746.006,-759.864 714,-750 689.784,-742.537 662.934,-735.778 638.773,-730.233"/>
<polygon fill="black" stroke="black" points="639.479,-726.804 628.953,-728.012 637.934,-733.632 639.479,-726.804"/>
<text text-anchor="middle" x="767" y="-753.8" font-family="Times New Roman,serif" font-size="14.00"> 15</text>
</g>
<!-- Debug.StartDebugTarget&#45;&gt;Project.Close -->
<g id="edge27" class="edge"><title>Debug.StartDebugTarget&#45;&gt;Project.Close</title>
<path fill="none" stroke="black" d="M605.642,-697.509C644.406,-682.733 702.678,-660.522 742.866,-645.203"/>
<polygon fill="black" stroke="black" points="744.32,-648.395 752.417,-641.563 741.827,-641.854 744.32,-648.395"/>
<text text-anchor="middle" x="699" y="-666.8" font-family="Times New Roman,serif" font-size="14.00"> 28</text>
</g>
<!-- Debug.StartDebugTarget&#45;&gt;Edit.BreakLine -->
<g id="edge45" class="edge"><title>Debug.StartDebugTarget&#45;&gt;Edit.BreakLine</title>
<path fill="none" stroke="black" d="M625.786,-728.559C661.619,-740.539 700,-762.195 700,-800 700,-976 700,-976 700,-976 700,-997.215 690.013,-1019.02 680.278,-1035.23"/>
<polygon fill="black" stroke="black" points="677.062,-1033.76 674.653,-1044.08 682.97,-1037.52 677.062,-1033.76"/>
<text text-anchor="middle" x="709" y="-884.3" font-family="Times New Roman,serif" font-size="14.00"> 17</text>
</g>
<!-- Debug.StartDebugTarget&#45;&gt;Debug.StopDebugging -->
<g id="edge32" class="edge"><title>Debug.StartDebugTarget&#45;&gt;Debug.StopDebugging</title>
<path fill="none" stroke="black" d="M523.171,-697.511C477.62,-678.708 405.354,-642.934 361,-591 232.792,-440.883 77.3949,-322.036 208,-174 282.873,-89.1337 1062.79,-39.3121 1342.69,-24.0556"/>
<polygon fill="black" stroke="black" points="1343.04,-27.5419 1352.84,-23.5058 1342.66,-20.5521 1343.04,-27.5419"/>
<text text-anchor="middle" x="198" y="-362.3" font-family="Times New Roman,serif" font-size="14.00"> 21</text>
</g>
<!-- Debug.StartDebugTarget&#45;&gt;Debug.StartDebugTarget -->
<g id="edge10" class="edge"><title>Debug.StartDebugTarget&#45;&gt;Debug.StartDebugTarget</title>
<path fill="none" stroke="black" d="M657.609,-721.352C673.43,-720.347 684.391,-717.896 684.391,-714 684.391,-711.017 677.966,-708.881 667.854,-707.593"/>
<polygon fill="black" stroke="black" points="667.889,-704.081 657.609,-706.648 667.246,-711.052 667.889,-704.081"/>
<text text-anchor="middle" x="693.391" y="-710.3" font-family="Times New Roman,serif" font-size="14.00"> 32</text>
</g>
<!-- Project.Create&#45;&gt;Edit.Delete -->
<g id="edge1" class="edge"><title>Project.Create&#45;&gt;Edit.Delete</title>
<path fill="none" stroke="black" d="M734.454,-280.474C933.159,-282.236 1539.68,-289.674 1573,-315 1591.58,-329.12 1589,-341.668 1589,-365 1589,-1063 1589,-1063 1589,-1063 1589,-1120.81 1170.88,-1140.75 1012.68,-1146.23"/>
<polygon fill="black" stroke="black" points="1012.52,-1142.73 1002.64,-1146.57 1012.75,-1149.73 1012.52,-1142.73"/>
<text text-anchor="middle" x="1598" y="-710.3" font-family="Times New Roman,serif" font-size="14.00"> 19</text>
</g>
<!-- Project.Create&#45;&gt;Project.Close -->
<g id="edge58" class="edge"><title>Project.Create&#45;&gt;Project.Close</title>
<path fill="none" stroke="black" d="M714.865,-292.265C747.909,-304.653 788,-327.425 788,-365 788,-541 788,-541 788,-541 788,-560.247 788,-581.946 788,-598.603"/>
<polygon fill="black" stroke="black" points="784.5,-598.744 788,-608.744 791.5,-598.744 784.5,-598.744"/>
<text text-anchor="middle" x="800.5" y="-449.3" font-family="Times New Roman,serif" font-size="14.00"> 134</text>
</g>
<!-- Project.Create&#45;&gt;Edit.BreakLine -->
<g id="edge65" class="edge"><title>Project.Create&#45;&gt;Edit.BreakLine</title>
<path fill="none" stroke="black" d="M612.618,-284.77C558.552,-289.993 483.405,-299.719 458,-315 434.082,-329.387 420,-337.088 420,-365 420,-584.5 420,-584.5 420,-584.5 420,-702.086 474,-725.914 474,-843.5 474,-976 474,-976 474,-976 474,-1028.75 536.208,-1048.94 589.055,-1056.57"/>
<polygon fill="black" stroke="black" points="588.767,-1060.06 599.137,-1057.9 589.679,-1053.12 588.767,-1060.06"/>
<text text-anchor="middle" x="443" y="-666.8" font-family="Times New Roman,serif" font-size="14.00"> 89</text>
</g>
<!-- Project.Create&#45;&gt;Build.BuildSolution -->
<g id="edge70" class="edge"><title>Project.Create&#45;&gt;Build.BuildSolution</title>
<path fill="none" stroke="black" d="M731.793,-273.798C850.445,-265.066 1123.91,-242.989 1352,-210 1359.14,-208.967 1366.58,-207.766 1373.98,-206.49"/>
<polygon fill="black" stroke="black" points="1374.79,-209.901 1384.03,-204.71 1373.57,-203.008 1374.79,-209.901"/>
<text text-anchor="middle" x="1213" y="-231.8" font-family="Times New Roman,serif" font-size="14.00"> 21</text>
</g>
<!-- Project.Create&#45;&gt;Edit.Paste -->
<g id="edge41" class="edge"><title>Project.Create&#45;&gt;Edit.Paste</title>
<path fill="none" stroke="black" d="M609.936,-281.45C541.716,-284.191 437.588,-292.111 406,-315 386.04,-329.463 382,-340.35 382,-365 382,-802 382,-802 382,-802 382,-823.645 371.424,-845.797 361.287,-862.058"/>
<polygon fill="black" stroke="black" points="358.341,-860.168 355.77,-870.446 364.189,-864.014 358.341,-860.168"/>
<text text-anchor="middle" x="391" y="-579.8" font-family="Times New Roman,serif" font-size="14.00"> 23</text>
</g>
<!-- Project.Create&#45;&gt;Project.AddNewItem -->
<g id="edge16" class="edge"><title>Project.Create&#45;&gt;Project.AddNewItem</title>
<path fill="none" stroke="black" d="M626.781,-266.568C602.639,-260.181 572.516,-251.759 546,-243 528.366,-237.175 524.906,-232.926 507,-228 461.349,-215.441 448.652,-218.087 402,-210 394.621,-208.721 386.927,-207.382 379.242,-206.041"/>
<polygon fill="black" stroke="black" points="379.625,-202.555 369.172,-204.281 378.42,-209.45 379.625,-202.555"/>
<text text-anchor="middle" x="555" y="-231.8" font-family="Times New Roman,serif" font-size="14.00"> 85</text>
</g>
<!-- Project.Create&#45;&gt;Project.Open -->
<g id="edge29" class="edge"><title>Project.Create&#45;&gt;Project.Open</title>
<path fill="none" stroke="black" d="M625.67,-291.257C598.015,-300.942 566.321,-318.223 556,-348 545.267,-378.964 556.421,-396.514 582,-417 590.313,-423.658 600.102,-429.441 609.764,-434.284"/>
<polygon fill="black" stroke="black" points="608.401,-437.512 618.936,-438.637 611.402,-431.188 608.401,-437.512"/>
<text text-anchor="middle" x="565" y="-362.3" font-family="Times New Roman,serif" font-size="14.00"> 60</text>
</g>
<!-- Project.Create&#45;&gt;Debug.StartDebugTarget -->
<g id="edge31" class="edge"><title>Project.Create&#45;&gt;Debug.StartDebugTarget</title>
<path fill="none" stroke="black" d="M611.635,-283.568C560.413,-287.822 492.126,-296.788 472,-315 454.889,-330.484 458,-341.923 458,-365 458,-497.5 458,-497.5 458,-497.5 458,-573.227 511.66,-649.771 542.98,-687.999"/>
<polygon fill="black" stroke="black" points="540.569,-690.573 549.67,-695.998 545.939,-686.082 540.569,-690.573"/>
<text text-anchor="middle" x="468" y="-492.8" font-family="Times New Roman,serif" font-size="14.00"> 29</text>
</g>
<!-- Project.Create&#45;&gt;Project.Create -->
<g id="edge33" class="edge"><title>Project.Create&#45;&gt;Project.Create</title>
<path fill="none" stroke="black" d="M728.351,-286.752C742.136,-286.178 752.394,-283.594 752.394,-279 752.394,-275.626 746.862,-273.337 738.463,-272.131"/>
<polygon fill="black" stroke="black" points="738.617,-268.631 728.351,-271.248 738.008,-275.605 738.617,-268.631"/>
<text text-anchor="middle" x="761.394" y="-275.3" font-family="Times New Roman,serif" font-size="14.00"> 30</text>
</g>
<!-- File.AddNewProject -->
<g id="node23" class="node"><title>File.AddNewProject</title>
<ellipse fill="none" stroke="black" cx="1034" cy="-192" rx="85.2851" ry="18"/>
<text text-anchor="middle" x="1034" y="-188.3" font-family="Times New Roman,serif" font-size="14.00">File.AddNewProject</text>
</g>
<!-- Project.Create&#45;&gt;File.AddNewProject -->
<g id="edge6" class="edge"><title>Project.Create&#45;&gt;File.AddNewProject</title>
<path fill="none" stroke="black" d="M718.954,-266.975C782.812,-251.981 897.313,-225.095 969.281,-208.196"/>
<polygon fill="black" stroke="black" points="970.209,-211.574 979.144,-205.881 968.609,-204.759 970.209,-211.574"/>
<text text-anchor="middle" x="884" y="-231.8" font-family="Times New Roman,serif" font-size="14.00"> 66</text>
</g>
<!-- SolutionExplorer.Refresh -->
<g id="node25" class="node"><title>SolutionExplorer.Refresh</title>
<ellipse fill="none" stroke="black" cx="1240" cy="-192" rx="102.882" ry="18"/>
<text text-anchor="middle" x="1240" y="-188.3" font-family="Times New Roman,serif" font-size="14.00">SolutionExplorer.Refresh</text>
</g>
<!-- Project.Create&#45;&gt;SolutionExplorer.Refresh -->
<g id="edge18" class="edge"><title>Project.Create&#45;&gt;SolutionExplorer.Refresh</title>
<path fill="none" stroke="black" d="M726.057,-269.985C811.442,-257.316 982.757,-231.852 1128,-210 1136.86,-208.668 1146.1,-207.272 1155.32,-205.876"/>
<polygon fill="black" stroke="black" points="1155.94,-209.324 1165.3,-204.366 1154.89,-202.403 1155.94,-209.324"/>
<text text-anchor="middle" x="1012" y="-231.8" font-family="Times New Roman,serif" font-size="14.00"> 11</text>
</g>
<!-- Project.AddClass -->
<g id="node27" class="node"><title>Project.AddClass</title>
<ellipse fill="none" stroke="black" cx="486" cy="-192" rx="75.2868" ry="18"/>
<text text-anchor="middle" x="486" y="-188.3" font-family="Times New Roman,serif" font-size="14.00">Project.AddClass</text>
</g>
<!-- Project.Create&#45;&gt;Project.AddClass -->
<g id="edge43" class="edge"><title>Project.Create&#45;&gt;Project.AddClass</title>
<path fill="none" stroke="black" d="M640.025,-263.388C609.264,-249.331 562.556,-227.985 528.64,-212.486"/>
<polygon fill="black" stroke="black" points="529.988,-209.254 519.438,-208.281 527.078,-215.62 529.988,-209.254"/>
<text text-anchor="middle" x="600" y="-231.8" font-family="Times New Roman,serif" font-size="14.00"> 12</text>
</g>
<!-- View.SolutionExplorer -->
<g id="node28" class="node"><title>View.SolutionExplorer</title>
<ellipse fill="none" stroke="black" cx="672" cy="-192" rx="92.8835" ry="18"/>
<text text-anchor="middle" x="672" y="-188.3" font-family="Times New Roman,serif" font-size="14.00">View.SolutionExplorer</text>
</g>
<!-- Project.Create&#45;&gt;View.SolutionExplorer -->
<g id="edge53" class="edge"><title>Project.Create&#45;&gt;View.SolutionExplorer</title>
<path fill="none" stroke="black" d="M672,-260.799C672,-249.163 672,-233.548 672,-220.237"/>
<polygon fill="black" stroke="black" points="675.5,-220.175 672,-210.175 668.5,-220.175 675.5,-220.175"/>
<text text-anchor="middle" x="681" y="-231.8" font-family="Times New Roman,serif" font-size="14.00"> 12</text>
</g>
<!-- File.NewWebSite -->
<g id="node29" class="node"><title>File.NewWebSite</title>
<ellipse fill="none" stroke="black" cx="857" cy="-192" rx="74.187" ry="18"/>
<text text-anchor="middle" x="857" y="-188.3" font-family="Times New Roman,serif" font-size="14.00">File.NewWebSite</text>
</g>
<!-- Project.Create&#45;&gt;File.NewWebSite -->
<g id="edge71" class="edge"><title>Project.Create&#45;&gt;File.NewWebSite</title>
<path fill="none" stroke="black" d="M703.803,-263.388C734.493,-249.287 781.143,-227.853 814.901,-212.343"/>
<polygon fill="black" stroke="black" points="816.431,-215.492 824.057,-208.136 813.508,-209.131 816.431,-215.492"/>
<text text-anchor="middle" x="785" y="-231.8" font-family="Times New Roman,serif" font-size="14.00"> 27</text>
</g>
<!-- Edit.InsertTab&#45;&gt;Edit.BreakLine -->
<g id="edge50" class="edge"><title>Edit.InsertTab&#45;&gt;Edit.BreakLine</title>
<path fill="none" stroke="black" d="M767.167,-991.704C746.75,-1005.16 717.152,-1024.66 694.553,-1039.55"/>
<polygon fill="black" stroke="black" points="692.386,-1036.79 685.962,-1045.21 696.238,-1042.63 692.386,-1036.79"/>
<text text-anchor="middle" x="744" y="-1014.8" font-family="Times New Roman,serif" font-size="14.00"> 38</text>
</g>
<!-- Edit.InsertTab&#45;&gt;Edit.InsertTab -->
<g id="edge11" class="edge"><title>Edit.InsertTab&#45;&gt;Edit.InsertTab</title>
<path fill="none" stroke="black" d="M848.178,-982.736C861.887,-982.131 872.044,-979.553 872.044,-975 872.044,-971.657 866.566,-969.378 858.226,-968.164"/>
<polygon fill="black" stroke="black" points="858.45,-964.67 848.178,-967.264 857.826,-971.642 858.45,-964.67"/>
<text text-anchor="middle" x="881.044" y="-971.3" font-family="Times New Roman,serif" font-size="14.00"> 41</text>
</g>
</g>
</svg>
